<?xml version="1.0" standalone="no"?>
<!DOCTYPE svg PUBLIC "-//W3C//DTD SVG 20010904//EN"
 "http://www.w3.org/TR/2001/REC-SVG-20010904/DTD/svg10.dtd">
<svg version="1.0" xmlns="http://www.w3.org/2000/svg"
 width="500.000000pt" height="500.000000pt" viewBox="0 0 500.000000 500.000000"
 preserveAspectRatio="xMidYMid meet">

<g transform="translate(0.000000,500.000000) scale(0.100000,-0.100000)"
fill="#000000" stroke="none">
<path d="M2486 4531 c-9 -14 -32 -76 -85 -226 -16 -44 -52 -138 -81 -210 -119
-297 -210 -568 -210 -625 0 -32 26 -71 110 -165 l37 -41 31 121 c18 66 47 177
66 247 19 70 31 127 27 126 -20 -2 -31 4 -31 19 0 15 -1 15 -18 0 -24 -22 -32
-21 -32 2 0 11 -4 22 -9 25 -5 3 -8 -2 -7 -12 1 -11 -8 -18 -24 -20 -20 -3
-22 -2 -12 11 7 8 10 23 6 33 -5 15 -4 16 4 4 8 -11 11 -7 10 18 -1 18 4 38
10 44 7 7 12 20 12 30 0 10 5 18 10 18 6 0 10 6 9 13 -1 6 1 19 4 27 3 8 22
61 42 117 19 56 42 114 50 130 8 15 15 34 15 42 0 8 3 12 6 8 4 -3 2 -20 -4
-36 -8 -23 -8 -30 1 -28 7 1 18 18 24 37 l13 35 -6 -41 c-7 -52 14 -140 30
-124 6 6 14 50 17 98 l7 87 -2 -105 c-3 -97 -9 -125 -75 -360 -40 -140 -86
-302 -101 -360 -56 -209 -60 -222 -78 -215 -26 10 -381 52 -690 80 -252 24
-283 29 -352 56 -41 17 -89 31 -106 32 -18 1 -30 5 -27 10 2 4 -7 7 -21 7 -14
0 -56 11 -94 25 -38 14 -80 25 -94 25 -23 0 -24 -2 -18 -47 15 -110 85 -188
405 -448 81 -66 209 -171 284 -234 75 -63 156 -130 179 -150 47 -38 72 -77 72
-110 0 -11 -22 -64 -50 -118 -46 -89 -118 -192 -331 -469 -95 -125 -259 -360
-259 -374 0 -5 24 0 53 11 28 12 111 38 182 59 72 21 182 57 245 80 170 62
288 100 311 100 38 0 41 -36 46 -540 2 -277 8 -489 13 -494 18 -18 38 15 86
137 26 67 58 139 71 160 13 20 19 37 13 37 -5 0 -14 9 -20 20 -6 11 -7 20 -3
19 19 -3 27 2 15 10 -10 6 -10 28 3 117 9 60 20 125 24 144 14 62 382 557 524
705 48 49 52 47 15 -7 l-18 -26 40 -53 c22 -30 40 -60 40 -69 0 -18 -29 -60
-165 -241 -189 -252 -215 -300 -46 -84 112 143 162 189 205 189 35 0 108 -44
221 -132 28 -21 127 -93 221 -160 364 -258 554 -347 631 -297 26 17 26 18 6
34 -11 9 -71 79 -133 156 -62 77 -116 139 -121 138 -4 -2 -6 3 -3 11 3 7 -3
19 -12 27 -12 9 -15 10 -10 2 11 -19 1 -16 -15 4 -10 11 -10 14 -1 9 21 -12
14 3 -27 57 -81 108 -364 633 -446 827 -20 47 -42 98 -50 114 -13 29 -12 31
17 52 16 12 46 37 67 56 40 36 95 81 251 203 92 72 207 165 343 277 26 22 77
50 115 63 75 26 74 33 -2 10 -41 -12 -131 -15 -518 -15 l-469 0 44 58 c25 31
56 69 70 84 14 15 22 30 17 33 -5 3 -37 -28 -72 -69 l-62 -75 -18 47 c-10 26
-46 121 -80 212 -174 472 -213 607 -229 790 -14 173 -22 219 -33 201z m-8
-226 c-3 -3 -9 2 -12 12 -6 14 -5 15 5 6 7 -7 10 -15 7 -18z m70 -472 c6 -16
20 -75 32 -133 33 -157 66 -253 131 -379 32 -63 59 -120 59 -127 0 -7 4 -15 9
-18 5 -3 127 -9 272 -12 145 -4 272 -11 282 -16 18 -9 18 -10 0 -24 -17 -14
-16 -15 12 -10 30 5 30 5 -4 -10 -19 -9 -46 -13 -60 -9 -15 3 -21 2 -14 -3 8
-5 -13 -16 -57 -31 -38 -13 -67 -28 -64 -32 3 -5 0 -9 -7 -9 -8 0 -9 -3 0 -13
6 -8 8 -17 4 -21 -4 -3 -8 -13 -9 -21 -1 -8 29 7 73 37 42 28 103 62 137 75
33 14 66 33 74 44 7 10 29 23 50 29 49 13 62 13 62 -3 0 -24 -191 -195 -380
-341 -63 -49 -132 -106 -153 -127 -21 -22 -47 -39 -57 -39 -11 0 -38 16 -60
36 -45 41 -44 30 2 -50 16 -27 27 -50 25 -53 -8 -8 -138 239 -133 253 3 7 0
13 -6 11 -7 -1 -13 7 -15 18 -3 17 -2 18 7 5 9 -11 13 -12 17 -2 6 16 33 15
78 -4 20 -8 49 -14 64 -12 21 2 14 7 -37 26 -80 30 -132 39 -132 23 0 -7 -4
-10 -8 -7 -5 3 -23 -20 -41 -50 -46 -74 -50 -68 -6 10 l35 63 -27 11 c-16 6
-65 21 -111 33 -45 12 -80 24 -78 26 2 3 37 -5 77 -16 40 -11 74 -19 76 -17 2
2 -22 25 -54 52 -32 26 -102 91 -156 143 l-98 96 2 95 c2 101 6 123 20 114 5
-3 9 3 9 13 1 36 84 331 107 376 7 15 20 27 27 27 7 0 18 -12 24 -27z m-222
-101 c-15 -15 -15 -15 -4 10 7 15 15 23 17 17 2 -6 -4 -18 -13 -27z m38 -14
c-3 -4 -11 -8 -17 -7 -9 0 -9 2 0 5 7 3 9 13 6 22 -4 14 -3 14 5 2 6 -8 8 -18
6 -22z m-1184 -328 c8 -5 11 -10 5 -10 -5 0 -17 5 -25 10 -8 5 -10 10 -5 10 6
0 17 -5 25 -10z m79 -35 c27 -13 78 -48 113 -78 34 -29 85 -71 113 -92 49 -40
49 -40 27 -8 -12 17 -22 33 -22 35 0 2 56 5 125 6 116 2 126 0 145 -20 11 -12
20 -25 20 -29 0 -4 25 -21 55 -38 30 -17 95 -69 143 -115 49 -46 98 -86 109
-90 11 -4 60 0 109 9 l88 15 64 -30 c76 -36 81 -36 156 -10 54 19 60 20 82 5
20 -13 22 -19 14 -35 -6 -11 -20 -20 -31 -20 -11 0 -75 -13 -142 -29 -67 -16
-158 -35 -201 -42 -66 -10 -75 -14 -55 -21 13 -5 32 -16 41 -25 10 -9 18 -13
18 -8 0 4 9 -4 21 -19 11 -14 17 -31 13 -37 -4 -7 91 38 212 100 120 62 209
104 196 94 -12 -10 -65 -41 -117 -68 -52 -28 -95 -54 -95 -58 0 -5 -4 -6 -8
-3 -4 2 -8 -4 -8 -15 0 -10 4 -19 8 -19 4 0 7 -3 7 -7 -5 -31 3 -34 35 -14 35
22 96 28 96 10 0 -6 -18 -32 -41 -57 -23 -26 -55 -74 -71 -107 -17 -33 -50
-88 -74 -122 -50 -74 -67 -139 -53 -203 6 -24 11 -77 13 -117 2 -67 16 -103
38 -103 16 0 111 110 142 164 35 63 27 55 -63 -58 -39 -49 -71 -86 -71 -83 0
5 80 332 106 435 l17 63 32 -45 c18 -25 46 -60 63 -77 27 -28 32 -30 38 -15 4
10 -7 63 -23 119 -27 92 -32 147 -13 147 4 0 31 -24 61 -52 30 -29 104 -93
164 -143 117 -95 282 -240 302 -265 35 -44 116 -210 121 -247 6 -53 -6 -55
-47 -7 -34 38 -290 214 -404 278 -65 36 -87 39 -87 12 0 -7 -17 -25 -37 -39
-34 -24 -118 -123 -312 -371 -35 -44 -81 -99 -101 -121 -21 -22 -43 -50 -49
-62 -7 -13 -16 -23 -21 -23 -28 0 7 333 49 475 24 79 27 131 8 138 -7 2 -30
-4 -52 -13 -22 -10 -115 -53 -207 -95 -91 -41 -170 -74 -175 -73 -4 1 -22 -12
-40 -30 -49 -49 -73 -40 -32 12 11 14 28 25 36 24 9 -2 17 5 19 15 4 26 24 55
146 209 60 75 117 140 127 143 10 3 18 11 18 18 0 6 26 53 57 103 56 90 65
114 46 114 -16 0 -40 -28 -112 -130 -37 -52 -92 -129 -123 -170 -30 -41 -68
-94 -84 -116 -51 -73 -183 -236 -225 -278 -23 -23 -65 -59 -95 -81 -30 -22
-69 -53 -87 -68 -19 -16 -38 -25 -45 -21 -7 4 -9 3 -6 -3 3 -5 -8 -20 -25 -33
-17 -12 -27 -16 -22 -9 14 24 14 41 -2 35 -11 -4 -12 -2 -4 14 5 10 7 27 4 37
-6 16 -5 15 9 -2 10 -13 12 -22 5 -26 -7 -4 -6 -9 1 -13 6 -4 8 -13 5 -19 -4
-7 -3 -9 1 -4 11 10 14 68 3 61 -11 -7 -10 13 3 39 10 21 10 21 -5 3 -9 -11
-16 -16 -16 -10 0 5 24 39 53 75 28 36 61 78 72 94 11 15 31 42 45 59 14 17
79 102 144 189 116 156 119 159 150 153 17 -4 38 -8 47 -9 10 -1 15 -7 11 -16
-3 -9 -1 -12 6 -7 6 4 20 2 30 -3 15 -8 25 -4 49 22 36 37 153 204 153 217 0
5 -28 30 -62 56 -163 123 -358 281 -693 560 -61 50 -133 103 -160 117 -28 14
-46 26 -42 27 4 0 30 -11 56 -25z m685 -226 c64 -18 114 -34 112 -36 -6 -6
-226 56 -245 68 -14 9 -14 10 0 6 9 -3 69 -20 133 -38z m540 -53 c51 -47 48
-68 -7 -47 -33 13 -57 39 -57 62 0 29 24 23 64 -15z m-359 4 c25 -11 -1 -11
-35 0 -20 6 -21 8 -5 8 11 0 29 -3 40 -8z m165 -44 c69 -19 118 -35 110 -35
-16 -1 -242 58 -249 65 -9 8 17 3 139 -30z m190 -46 c20 -6 21 -8 5 -8 -11 0
-31 4 -45 8 -20 6 -21 8 -5 8 11 0 31 -4 45 -8z m159 -257 c-12 -21 -27 -42
-32 -48 -11 -11 9 29 31 63 24 37 25 25 1 -15z m285 -189 c3 -8 2 -12 -4 -9
-6 3 -10 10 -10 16 0 14 7 11 14 -7z m-52 -428 c368 -227 589 -377 639 -432
46 -52 52 -70 8 -23 -64 67 -150 126 -614 417 -117 74 -156 102 -142 102 3 0
53 -29 109 -64z m-667 -38 c-3 -29 -10 -186 -16 -348 -6 -162 -13 -297 -16
-300 -3 -3 -2 110 2 252 7 246 6 257 -12 266 -15 9 -19 7 -20 -10 -2 -17 1
-18 15 -7 15 12 16 11 2 -4 -19 -20 -324 -144 -490 -198 -69 -22 -150 -49
-180 -59 -42 -14 -58 -16 -69 -7 -12 9 -13 9 -7 -1 8 -13 -6 -21 -46 -26 -13
-1 -29 -6 -36 -10 -7 -4 -12 -5 -12 -1 0 3 15 14 33 25 17 11 28 20 24 20 -8
0 37 40 84 76 14 10 62 48 105 83 96 77 154 106 404 205 107 42 202 81 210 86
27 16 30 11 25 -42z"/>
<path d="M2859 3080 c-124 -10 -143 -16 -135 -43 3 -12 6 -30 6 -39 0 -12 8
-18 25 -18 14 0 25 4 25 8 0 5 43 9 96 11 91 2 165 20 344 81 31 10 -223 10
-361 0z"/>
<path d="M2008 2759 c30 -26 174 -130 176 -127 1 1 7 10 14 19 10 13 3 22 -49
60 -49 35 -57 45 -42 50 10 4 -10 6 -44 5 -34 0 -59 -4 -55 -7z"/>
<path d="M2171 1974 c0 -11 3 -14 6 -6 3 7 2 16 -1 19 -3 4 -6 -2 -5 -13z"/>
<path d="M2420 4109 c0 -5 5 -7 10 -4 6 3 10 8 10 11 0 2 -4 4 -10 4 -5 0 -10
-5 -10 -11z"/>
<path d="M2451 4104 c0 -11 3 -14 6 -6 3 7 2 16 -1 19 -3 4 -6 -2 -5 -13z"/>
<path d="M2441 3964 c0 -11 3 -14 6 -6 3 7 2 16 -1 19 -3 4 -6 -2 -5 -13z"/>
<path d="M2415 3935 c3 -32 11 -40 19 -20 4 11 2 14 -6 9 -8 -5 -9 -2 -5 9 3
9 2 19 -3 22 -4 3 -7 -6 -5 -20z"/>
<path d="M2294 3885 c-4 -14 -4 -29 0 -32 3 -4 6 4 6 16 0 12 4 19 10 16 6 -3
7 1 4 9 -8 22 -13 20 -20 -9z"/>
<path d="M2406 3865 c-9 -26 -7 -32 5 -12 6 10 9 21 6 23 -2 3 -7 -2 -11 -11z"/>
<path d="M2310 3854 c0 -8 10 -14 26 -14 28 0 25 15 -6 23 -13 3 -20 0 -20 -9z"/>
<path d="M2360 3791 c0 -5 5 -13 10 -16 6 -3 10 -2 10 4 0 5 -4 13 -10 16 -5
3 -10 2 -10 -4z"/>
<path d="M4113 3314 l-28 -26 35 23 c46 29 45 29 32 29 -6 0 -24 -12 -39 -26z"/>
<path d="M3066 2643 c-4 -4 35 -28 86 -55 105 -54 98 -51 98 -38 0 13 -176
101 -184 93z"/>
</g>
</svg>
