<?xml version="1.0" encoding="UTF-8"?>
<!DOCTYPE svg PUBLIC "-//W3C//DTD SVG 1.1//EN" "http://www.w3.org/Graphics/SVG/1.1/DTD/svg11.dtd">
<svg xmlns="http://www.w3.org/2000/svg" version="1.1" width="400px" height="400px" style="shape-rendering:geometricPrecision; text-rendering:geometricPrecision; image-rendering:optimizeQuality; fill-rule:evenodd; clip-rule:evenodd" xmlns:xlink="http://www.w3.org/1999/xlink">
<g><path style="opacity:1" fill="#d1d3d9" d="M 335.5,92.5 C 341.174,100.348 346.674,108.348 352,116.5C 352.74,117.749 352.573,118.749 351.5,119.5C 347.149,112.798 342.316,106.465 337,100.5C 336.536,101.094 336.369,101.761 336.5,102.5C 335.094,99.4746 333.761,96.3079 332.5,93C 333.275,90.0161 334.275,89.8494 335.5,92.5 Z"/></g>
<g><path style="opacity:1" fill="#adacb1" d="M 166.5,93.5 C 166.451,97.0781 165.785,100.411 164.5,103.5C 164.279,100.903 163.779,100.903 163,103.5C 161.829,108.185 160.662,112.852 159.5,117.5C 157.974,116.508 157.307,115.008 157.5,113C 157.986,109.96 158.153,106.793 158,103.5C 160.632,99.8381 163.466,96.5048 166.5,93.5 Z"/></g>
<g><path style="opacity:0.129" fill="#a2a9ad" d="M 257.5,112.5 C 254.785,110.098 252.285,107.432 250,104.5C 249.501,110.157 249.334,115.824 249.5,121.5C 249.5,128.833 249.5,136.167 249.5,143.5C 249.833,144.167 250.167,144.833 250.5,145.5C 250.112,146.976 250.112,148.309 250.5,149.5C 249.883,149.389 249.383,149.056 249,148.5C 246.972,151.692 244.472,154.359 241.5,156.5C 243.14,152.559 245.306,148.892 248,145.5C 248.499,140.845 248.666,136.179 248.5,131.5C 248.5,130.167 248.5,128.833 248.5,127.5C 248.5,126.5 248.5,125.5 248.5,124.5C 248.666,118.158 248.5,111.825 248,105.5C 244.257,109.732 240.757,114.065 237.5,118.5C 239.452,113.939 241.952,109.605 245,105.5C 248.399,101.348 251.399,101.681 254,106.5C 255.421,108.405 256.588,110.405 257.5,112.5 Z"/></g>
<g><path style="opacity:0.573" fill="#888991" d="M 335.5,92.5 C 348.012,105.179 356.678,120.179 361.5,137.5C 359.036,131.91 356.036,126.577 352.5,121.5C 352.167,120.833 351.833,120.167 351.5,119.5C 352.573,118.749 352.74,117.749 352,116.5C 346.674,108.348 341.174,100.348 335.5,92.5 Z"/></g>
<g><path style="opacity:1" fill="#7d7e7f" d="M 166.5,93.5 C 163.466,96.5048 160.632,99.8381 158,103.5C 158.153,106.793 157.986,109.96 157.5,113C 157.307,115.008 157.974,116.508 159.5,117.5C 158.889,121.998 158.223,126.498 157.5,131C 157.359,132.955 156.526,134.455 155,135.5C 154.101,128.47 153.101,121.47 152,114.5C 151.092,116.439 149.592,117.439 147.5,117.5C 152.331,108.167 158.165,99.5002 165,91.5C 165.717,92.0442 166.217,92.7109 166.5,93.5 Z"/></g>
<g><path style="opacity:0.969" fill="#505051" d="M 351.5,119.5 C 351.833,120.167 352.167,120.833 352.5,121.5C 351.448,121.351 350.448,121.517 349.5,122C 347.994,124.333 346.327,126.5 344.5,128.5C 343.23,132.881 343.23,137.215 344.5,141.5C 343.651,143.888 342.651,146.221 341.5,148.5C 342.422,143.528 342.588,138.528 342,133.5C 340.304,123.127 338.471,112.794 336.5,102.5C 336.369,101.761 336.536,101.094 337,100.5C 342.316,106.465 347.149,112.798 351.5,119.5 Z"/></g>
<g><path style="opacity:1" fill="#d9dce8" d="M 257.5,112.5 C 268.186,125.859 278.52,139.526 288.5,153.5C 288.402,155.553 289.069,157.22 290.5,158.5C 291.301,162.235 292.301,165.901 293.5,169.5C 292.732,170.263 292.232,171.263 292,172.5C 291,170.5 290,168.5 289,166.5C 288.667,166.833 288.333,167.167 288,167.5C 285.151,165.691 281.985,164.691 278.5,164.5C 278.391,160.753 276.391,158.753 272.5,158.5C 271.803,155.427 269.97,153.427 267,152.5C 266.322,149.697 265.156,147.197 263.5,145C 263.833,144.667 264.167,144.333 264.5,144C 262.862,143.758 261.362,142.925 260,141.5C 258.782,138.442 256.949,135.776 254.5,133.5C 253.914,133.709 253.414,134.043 253,134.5C 251.88,130.026 250.714,125.693 249.5,121.5C 249.334,115.824 249.501,110.157 250,104.5C 252.285,107.432 254.785,110.098 257.5,112.5 Z"/></g>
<g><path style="opacity:1" fill="#555555" d="M 164.5,103.5 C 161.452,115.525 159.119,127.691 157.5,140C 158.287,142.099 158.62,144.266 158.5,146.5C 157.768,145.192 156.934,143.858 156,142.5C 154.811,144.233 153.644,145.9 152.5,147.5C 151.287,143.407 149.287,139.741 146.5,136.5C 144.704,135.859 143.204,134.859 142,133.5C 141.617,134.056 141.117,134.389 140.5,134.5C 142.639,128.748 144.973,123.081 147.5,117.5C 149.592,117.439 151.092,116.439 152,114.5C 153.101,121.47 154.101,128.47 155,135.5C 156.526,134.455 157.359,132.955 157.5,131C 158.223,126.498 158.889,121.998 159.5,117.5C 160.662,112.852 161.829,108.185 163,103.5C 163.779,100.903 164.279,100.903 164.5,103.5 Z"/></g>
<g><path style="opacity:1" fill="#302f2d" d="M 352.5,121.5 C 356.036,126.577 359.036,131.91 361.5,137.5C 366.444,149.209 369.11,161.542 369.5,174.5C 369.666,181.841 369.5,189.174 369,196.5C 368.768,195.263 368.268,194.263 367.5,193.5C 366.871,190.603 365.871,187.936 364.5,185.5C 358.39,170.469 351.723,155.802 344.5,141.5C 343.23,137.215 343.23,132.881 344.5,128.5C 346.327,126.5 347.994,124.333 349.5,122C 350.448,121.517 351.448,121.351 352.5,121.5 Z"/></g>
<g><path style="opacity:1" fill="#1f272f" d="M 248.5,124.5 C 245.052,127.461 242.552,131.127 241,135.5C 236.696,137.304 233.529,140.304 231.5,144.5C 227.888,146.286 224.721,148.62 222,151.5C 220.602,150.949 219.268,150.616 218,150.5C 216.012,154.117 214.512,154.117 213.5,150.5C 221.19,139.494 229.19,128.827 237.5,118.5C 240.757,114.065 244.257,109.732 248,105.5C 248.5,111.825 248.666,118.158 248.5,124.5 Z"/></g>
<g><path style="opacity:1" fill="#3c4755" d="M 248.5,124.5 C 248.5,125.5 248.5,126.5 248.5,127.5C 245.834,132.177 243.667,137.177 242,142.5C 238.144,144.684 235.311,147.851 233.5,152C 231.564,152.813 229.564,153.313 227.5,153.5C 227.415,155.929 226.415,157.929 224.5,159.5C 221.167,160.833 217.833,162.167 214.5,163.5C 213.5,162.833 212.5,162.167 211.5,161.5C 210.378,162.63 209.044,163.297 207.5,163.5C 208.059,161.321 208.726,159.154 209.5,157C 209.43,156.235 209.097,155.735 208.5,155.5C 210.386,154.07 212.053,152.403 213.5,150.5C 214.512,154.117 216.012,154.117 218,150.5C 219.268,150.616 220.602,150.949 222,151.5C 224.721,148.62 227.888,146.286 231.5,144.5C 233.529,140.304 236.696,137.304 241,135.5C 242.552,131.127 245.052,127.461 248.5,124.5 Z"/></g>
<g><path style="opacity:1" fill="#070909" d="M 250.5,149.5 C 254.687,155.873 258.353,162.539 261.5,169.5C 260.211,167.752 258.711,167.419 257,168.5C 254.667,166.282 254.167,163.782 255.5,161C 253.63,159.634 251.63,158.467 249.5,157.5C 247.534,161.626 245.368,165.626 243,169.5C 242.667,171.167 242.333,172.833 242,174.5C 240.333,176.843 238.333,178.843 236,180.5C 234.326,186.51 232.659,192.51 231,198.5C 229.615,199.551 228.615,200.884 228,202.5C 227.501,206.152 227.335,209.818 227.5,213.5C 224.086,219.997 220.419,226.33 216.5,232.5C 213.391,235.278 211.058,238.611 209.5,242.5C 208.566,241.432 208.232,240.099 208.5,238.5C 209.508,235.156 210.508,231.823 211.5,228.5C 213.396,224.703 214.729,220.703 215.5,216.5C 215.557,215.391 215.89,214.391 216.5,213.5C 222.25,198.658 228.583,183.991 235.5,169.5C 239.357,166.114 241.357,161.78 241.5,156.5C 244.472,154.359 246.972,151.692 249,148.5C 249.383,149.056 249.883,149.389 250.5,149.5 Z"/></g>
<g><path style="opacity:1" fill="#abb2be" d="M 158.5,146.5 C 159.612,148.599 160.279,150.933 160.5,153.5C 160.775,158.22 159.941,158.554 158,154.5C 155.763,155.056 153.763,156.056 152,157.5C 150.961,156.756 150.461,155.756 150.5,154.5C 151.167,152.167 151.833,149.833 152.5,147.5C 153.644,145.9 154.811,144.233 156,142.5C 156.934,143.858 157.768,145.192 158.5,146.5 Z"/></g>
<g><path style="opacity:1" fill="#5f6b79" d="M 248.5,127.5 C 248.5,128.833 248.5,130.167 248.5,131.5C 244.065,144.949 237.065,156.949 227.5,167.5C 225.028,168.896 222.362,169.73 219.5,170C 214.785,170.281 210.118,170.781 205.5,171.5C 205.963,168.779 206.629,166.112 207.5,163.5C 209.044,163.297 210.378,162.63 211.5,161.5C 212.5,162.167 213.5,162.833 214.5,163.5C 217.833,162.167 221.167,160.833 224.5,159.5C 226.415,157.929 227.415,155.929 227.5,153.5C 229.564,153.313 231.564,152.813 233.5,152C 235.311,147.851 238.144,144.684 242,142.5C 243.667,137.177 245.834,132.177 248.5,127.5 Z"/></g>
<g><path style="opacity:1" fill="#444e56" d="M 288.5,153.5 C 300.329,157.461 312.329,161.128 324.5,164.5C 322.372,165.629 320.039,165.796 317.5,165C 310.357,162.339 303.023,160.505 295.5,159.5C 294.185,158.524 292.852,157.524 291.5,156.5C 290.702,156.957 290.369,157.624 290.5,158.5C 289.069,157.22 288.402,155.553 288.5,153.5 Z"/></g>
<g><path style="opacity:1" fill="#6e7887" d="M 160.5,153.5 C 161.817,156.428 163.15,159.428 164.5,162.5C 162.376,161.969 160.876,160.635 160,158.5C 157.418,162.255 153.918,164.588 149.5,165.5C 147.97,165.36 146.97,164.693 146.5,163.5C 147.597,160.314 148.93,157.314 150.5,154.5C 150.461,155.756 150.961,156.756 152,157.5C 153.763,156.056 155.763,155.056 158,154.5C 159.941,158.554 160.775,158.22 160.5,153.5 Z"/></g>
<g><path style="opacity:1" fill="#737d89" d="M 341.5,148.5 C 340.769,154.192 338.936,159.525 336,164.5C 334.266,166.451 332.099,167.451 329.5,167.5C 324.113,167.595 318.78,167.095 313.5,166C 308.554,163.64 303.388,162.14 298,161.5C 297.601,161.728 297.435,162.062 297.5,162.5C 296.599,161.71 295.932,160.71 295.5,159.5C 303.023,160.505 310.357,162.339 317.5,165C 320.039,165.796 322.372,165.629 324.5,164.5C 327.445,165.468 330.445,165.634 333.5,165C 336.598,159.638 339.265,154.138 341.5,148.5 Z"/></g>
<g><path style="opacity:1" fill="#707071" d="M 250.5,145.5 C 256.299,154.765 261.299,164.432 265.5,174.5C 263.926,173.016 262.593,171.349 261.5,169.5C 258.353,162.539 254.687,155.873 250.5,149.5C 250.112,148.309 250.112,146.976 250.5,145.5 Z"/></g>
<g><path style="opacity:1" fill="#363e4b" d="M 164.5,162.5 C 165.167,163.833 165.833,165.167 166.5,166.5C 162.555,164.757 159.222,165.591 156.5,169C 151.843,169.113 147.51,170.28 143.5,172.5C 143.132,168.956 144.132,165.956 146.5,163.5C 146.97,164.693 147.97,165.36 149.5,165.5C 153.918,164.588 157.418,162.255 160,158.5C 160.876,160.635 162.376,161.969 164.5,162.5 Z"/></g>
<g><path style="opacity:1" fill="#b1bccc" d="M 329.5,167.5 C 329.423,168.75 328.756,169.583 327.5,170C 320.815,170.666 314.149,170.499 307.5,169.5C 306.167,169.667 304.833,169.833 303.5,170C 302.944,170.383 302.611,170.883 302.5,171.5C 300.595,168.696 298.929,165.696 297.5,162.5C 297.435,162.062 297.601,161.728 298,161.5C 303.388,162.14 308.554,163.64 313.5,166C 318.78,167.095 324.113,167.595 329.5,167.5 Z"/></g>
<g><path style="opacity:1" fill="#262526" d="M 152.5,147.5 C 151.833,149.833 151.167,152.167 150.5,154.5C 148.93,157.314 147.597,160.314 146.5,163.5C 144.132,165.956 143.132,168.956 143.5,172.5C 142.521,174.145 141.188,175.479 139.5,176.5C 138.894,178.709 138.227,180.876 137.5,183C 137.833,183.333 138.167,183.667 138.5,184C 137.53,185.68 136.53,187.18 135.5,188.5C 134.71,189.401 133.71,190.068 132.5,190.5C 132.5,185.5 132.5,180.5 132.5,175.5C 132.353,161.236 135.02,147.569 140.5,134.5C 141.117,134.389 141.617,134.056 142,133.5C 143.204,134.859 144.704,135.859 146.5,136.5C 149.287,139.741 151.287,143.407 152.5,147.5 Z"/></g>
<g><path style="opacity:1" fill="#ebedf3" d="M 249.5,121.5 C 250.714,125.693 251.88,130.026 253,134.5C 253.414,134.043 253.914,133.709 254.5,133.5C 256.949,135.776 258.782,138.442 260,141.5C 261.362,142.925 262.862,143.758 264.5,144C 264.167,144.333 263.833,144.667 263.5,145C 265.156,147.197 266.322,149.697 267,152.5C 269.97,153.427 271.803,155.427 272.5,158.5C 276.391,158.753 278.391,160.753 278.5,164.5C 281.985,164.691 285.151,165.691 288,167.5C 288.333,167.167 288.667,166.833 289,166.5C 290,168.5 291,170.5 292,172.5C 292.232,171.263 292.732,170.263 293.5,169.5C 295.428,173.285 296.762,177.285 297.5,181.5C 295.493,182.679 295.16,182.179 296.5,180C 293.51,179.153 292.176,180.32 292.5,183.5C 288.003,185.046 283.67,184.713 279.5,182.5C 276.891,179.856 273.891,177.689 270.5,176C 270.968,174.178 271.301,172.011 271.5,169.5C 270.178,169.67 269.011,169.337 268,168.5C 266.284,165.36 264.951,162.027 264,158.5C 262.636,159.258 261.469,158.758 260.5,157C 261.308,156.692 261.975,156.192 262.5,155.5C 261.167,154.167 261.167,152.833 262.5,151.5C 260.692,148.577 258.359,146.077 255.5,144C 256.167,143.667 256.833,143.333 257.5,143C 255.996,141.509 255.163,139.676 255,137.5C 253.984,138.634 253.317,138.301 253,136.5C 252.385,139.303 251.218,141.636 249.5,143.5C 249.5,136.167 249.5,128.833 249.5,121.5 Z"/></g>
<g><path style="opacity:1" fill="#050709" d="M 295.5,159.5 C 295.932,160.71 296.599,161.71 297.5,162.5C 298.929,165.696 300.595,168.696 302.5,171.5C 302.935,174.157 303.935,176.491 305.5,178.5C 306.809,182.404 307.809,186.404 308.5,190.5C 309.363,192.421 310.029,194.421 310.5,196.5C 311.739,202.985 313.572,209.318 316,215.5C 317.507,217.008 319.173,218.341 321,219.5C 321.617,220.449 321.451,221.282 320.5,222C 322.282,222.814 323.782,223.981 325,225.5C 326.676,223.685 327.509,221.851 327.5,220C 328.729,219.219 330.062,218.719 331.5,218.5C 333.472,219.443 335.305,219.776 337,219.5C 337.333,218.833 337.667,218.167 338,217.5C 338.781,218.729 339.281,220.062 339.5,221.5C 338.018,223.496 337.351,225.496 337.5,227.5C 338.183,230.461 339.016,230.795 340,228.5C 340.483,229.448 340.649,230.448 340.5,231.5C 340.289,236.059 339.622,240.559 338.5,245C 338.648,246.256 338.982,247.423 339.5,248.5C 333.5,252.833 327.5,257.167 321.5,261.5C 320.292,262.234 318.959,262.567 317.5,262.5C 314.865,247.989 311.865,233.656 308.5,219.5C 307.278,212.941 305.612,206.607 303.5,200.5C 303.405,198.214 302.738,196.214 301.5,194.5C 300.409,190 299.076,185.666 297.5,181.5C 296.762,177.285 295.428,173.285 293.5,169.5C 292.301,165.901 291.301,162.235 290.5,158.5C 290.369,157.624 290.702,156.957 291.5,156.5C 292.852,157.524 294.185,158.524 295.5,159.5 Z"/></g>
<g><path style="opacity:1" fill="#808b98" d="M 248.5,131.5 C 248.666,136.179 248.499,140.845 248,145.5C 245.306,148.892 243.14,152.559 241.5,156.5C 241.357,161.78 239.357,166.114 235.5,169.5C 235.877,167.742 236.544,166.075 237.5,164.5C 236.753,164.264 235.92,163.93 235,163.5C 234.365,164.966 233.531,166.3 232.5,167.5C 229.043,169.457 226.043,171.957 223.5,175C 217.911,175.552 212.411,176.385 207,177.5C 205.984,176.366 205.317,176.699 205,178.5C 204.617,177.944 204.117,177.611 203.5,177.5C 203.595,175.214 204.262,173.214 205.5,171.5C 210.118,170.781 214.785,170.281 219.5,170C 222.362,169.73 225.028,168.896 227.5,167.5C 237.065,156.949 244.065,144.949 248.5,131.5 Z"/></g>
<g><path style="opacity:1" fill="#ebedf2" d="M 344.5,141.5 C 351.723,155.802 358.39,170.469 364.5,185.5C 364.662,187.527 364.495,189.527 364,191.5C 357.804,195.778 351.97,199.778 346.5,203.5C 346.768,201.901 346.434,200.568 345.5,199.5C 344.5,197.833 343.167,196.5 341.5,195.5C 340.284,193.549 338.618,192.049 336.5,191C 327.036,186.599 317.369,182.766 307.5,179.5C 307.158,178.662 306.492,178.328 305.5,178.5C 303.935,176.491 302.935,174.157 302.5,171.5C 302.611,170.883 302.944,170.383 303.5,170C 304.833,169.833 306.167,169.667 307.5,169.5C 314.149,170.499 320.815,170.666 327.5,170C 328.756,169.583 329.423,168.75 329.5,167.5C 332.099,167.451 334.266,166.451 336,164.5C 338.936,159.525 340.769,154.192 341.5,148.5C 342.651,146.221 343.651,143.888 344.5,141.5 Z"/></g>
<g><path style="opacity:1" fill="#697686" d="M 198.5,168.5 C 198.672,169.492 198.338,170.158 197.5,170.5C 188.786,173.015 180.12,175.848 171.5,179C 168.294,181.212 167.294,184.046 168.5,187.5C 165.833,188.833 163.167,190.167 160.5,191.5C 160.389,190.883 160.056,190.383 159.5,190C 161.113,187.772 161.78,185.272 161.5,182.5C 168.387,177.947 175.721,174.28 183.5,171.5C 188.605,170.879 193.605,169.879 198.5,168.5 Z"/></g>
<g><path style="opacity:1" fill="#f3f6f5" d="M 194.5,177.5 C 192.96,182.785 191.627,188.118 190.5,193.5C 189.584,193.982 188.584,194.315 187.5,194.5C 181.363,192.216 175.03,190.716 168.5,190C 169.598,189.23 169.598,188.397 168.5,187.5C 175.832,183.746 183.498,180.746 191.5,178.5C 191.5,177.5 191.5,176.5 191.5,175.5C 193.179,175.285 194.179,175.952 194.5,177.5 Z"/></g>
<g><path style="opacity:1" fill="#1b252e" d="M 180.5,162.5 C 182.639,164.139 182.973,166.139 181.5,168.5C 182.5,168.833 183.5,169.167 184.5,169.5C 188.486,168.89 192.486,168.39 196.5,168C 198,167.167 199.167,166 200,164.5C 200.348,166.14 199.848,167.473 198.5,168.5C 193.605,169.879 188.605,170.879 183.5,171.5C 181.801,171.66 180.134,171.494 178.5,171C 179.406,169.301 179.739,167.467 179.5,165.5C 176.123,165.959 172.789,166.626 169.5,167.5C 169.16,170.144 169.827,172.477 171.5,174.5C 171.291,175.086 170.957,175.586 170.5,176C 162.526,179.987 154.526,183.987 146.5,188C 142.848,188.499 139.182,188.665 135.5,188.5C 136.53,187.18 137.53,185.68 138.5,184C 138.167,183.667 137.833,183.333 137.5,183C 138.227,180.876 138.894,178.709 139.5,176.5C 141.188,175.479 142.521,174.145 143.5,172.5C 147.51,170.28 151.843,169.113 156.5,169C 159.222,165.591 162.555,164.757 166.5,166.5C 171.167,165.167 175.833,163.833 180.5,162.5 Z"/></g>
<g><path style="opacity:1" fill="#edeef3" d="M 297.5,181.5 C 299.076,185.666 300.409,190 301.5,194.5C 303.081,198.693 302.747,202.693 300.5,206.5C 296.13,209.366 291.63,212.032 287,214.5C 285.729,213.117 284.229,212.117 282.5,211.5C 280.485,206.309 277.985,201.309 275,196.5C 274.51,195.207 274.343,193.873 274.5,192.5C 272.519,185.872 269.519,179.872 265.5,174.5C 261.299,164.432 256.299,154.765 250.5,145.5C 250.167,144.833 249.833,144.167 249.5,143.5C 251.218,141.636 252.385,139.303 253,136.5C 253.317,138.301 253.984,138.634 255,137.5C 255.163,139.676 255.996,141.509 257.5,143C 256.833,143.333 256.167,143.667 255.5,144C 258.359,146.077 260.692,148.577 262.5,151.5C 261.167,152.833 261.167,154.167 262.5,155.5C 261.975,156.192 261.308,156.692 260.5,157C 261.469,158.758 262.636,159.258 264,158.5C 264.951,162.027 266.284,165.36 268,168.5C 269.011,169.337 270.178,169.67 271.5,169.5C 271.301,172.011 270.968,174.178 270.5,176C 273.891,177.689 276.891,179.856 279.5,182.5C 283.67,184.713 288.003,185.046 292.5,183.5C 292.176,180.32 293.51,179.153 296.5,180C 295.16,182.179 295.493,182.679 297.5,181.5 Z"/></g>
<g><path style="opacity:1" fill="#aebaca" d="M 197.5,170.5 C 197.065,173.157 196.065,175.491 194.5,177.5C 194.179,175.952 193.179,175.285 191.5,175.5C 191.5,176.5 191.5,177.5 191.5,178.5C 183.498,180.746 175.832,183.746 168.5,187.5C 167.294,184.046 168.294,181.212 171.5,179C 180.12,175.848 188.786,173.015 197.5,170.5 Z"/></g>
<g><path style="opacity:1" fill="#06080c" d="M 208.5,155.5 C 209.097,155.735 209.43,156.235 209.5,157C 208.726,159.154 208.059,161.321 207.5,163.5C 206.629,166.112 205.963,168.779 205.5,171.5C 204.262,173.214 203.595,175.214 203.5,177.5C 200.747,183.487 198.747,189.821 197.5,196.5C 197.5,197.167 197.5,197.833 197.5,198.5C 195.411,202.501 194.078,206.835 193.5,211.5C 191.74,215.547 190.74,219.88 190.5,224.5C 188.011,233.223 186.344,242.223 185.5,251.5C 184.539,253.265 184.205,255.265 184.5,257.5C 181.829,259.426 179.163,259.592 176.5,258C 179.663,239.21 183.33,220.376 187.5,201.5C 188.345,200.329 189.011,198.995 189.5,197.5C 189.833,196.167 190.167,194.833 190.5,193.5C 191.627,188.118 192.96,182.785 194.5,177.5C 196.065,175.491 197.065,173.157 197.5,170.5C 198.338,170.158 198.672,169.492 198.5,168.5C 199.848,167.473 200.348,166.14 200,164.5C 199.167,166 198,167.167 196.5,168C 192.486,168.39 188.486,168.89 184.5,169.5C 183.5,169.167 182.5,168.833 181.5,168.5C 182.973,166.139 182.639,164.139 180.5,162.5C 189.493,159.252 198.827,156.918 208.5,155.5 Z"/></g>
<g><path style="opacity:1" fill="#adb5c1" d="M 235.5,169.5 C 234.5,170.833 233.5,172.167 232.5,173.5C 230.983,173.511 229.816,174.177 229,175.5C 224.316,184.089 217.15,189.089 207.5,190.5C 205.504,189.39 203.671,189.724 202,191.5C 201.346,190.304 200.846,190.304 200.5,191.5C 201.376,192.251 202.376,192.751 203.5,193C 201.448,193.93 199.948,195.43 199,197.5C 198.617,196.944 198.117,196.611 197.5,196.5C 198.747,189.821 200.747,183.487 203.5,177.5C 204.117,177.611 204.617,177.944 205,178.5C 205.317,176.699 205.984,176.366 207,177.5C 212.411,176.385 217.911,175.552 223.5,175C 226.043,171.957 229.043,169.457 232.5,167.5C 233.531,166.3 234.365,164.966 235,163.5C 235.92,163.93 236.753,164.264 237.5,164.5C 236.544,166.075 235.877,167.742 235.5,169.5 Z"/></g>
<g><path style="opacity:1" fill="#5b5b5b" d="M 265.5,174.5 C 269.519,179.872 272.519,185.872 274.5,192.5C 270.687,186.988 267.687,180.988 265.5,174.5 Z"/></g>
<g><path style="opacity:1" fill="#6e757a" d="M 305.5,178.5 C 306.492,178.328 307.158,178.662 307.5,179.5C 309.885,181.263 312.552,182.763 315.5,184C 313.277,186.394 310.943,188.561 308.5,190.5C 307.809,186.404 306.809,182.404 305.5,178.5 Z"/></g>
<g><path style="opacity:1" fill="#050810" d="M 261.5,169.5 C 262.593,171.349 263.926,173.016 265.5,174.5C 267.687,180.988 270.687,186.988 274.5,192.5C 274.343,193.873 274.51,195.207 275,196.5C 277.985,201.309 280.485,206.309 282.5,211.5C 284.031,215.426 285.364,219.426 286.5,223.5C 288.965,228.564 290.632,233.897 291.5,239.5C 293.109,241.601 293.609,243.935 293,246.5C 290.465,242.734 287.965,239.067 285.5,235.5C 283.853,232.527 281.853,229.86 279.5,227.5C 278.525,225.205 277.192,223.205 275.5,221.5C 266.592,206.021 257.925,190.355 249.5,174.5C 248.702,174.957 248.369,175.624 248.5,176.5C 245.073,181.016 242.407,186.016 240.5,191.5C 236.162,198.87 231.829,206.203 227.5,213.5C 227.335,209.818 227.501,206.152 228,202.5C 228.615,200.884 229.615,199.551 231,198.5C 232.659,192.51 234.326,186.51 236,180.5C 238.333,178.843 240.333,176.843 242,174.5C 242.333,172.833 242.667,171.167 243,169.5C 245.368,165.626 247.534,161.626 249.5,157.5C 251.63,158.467 253.63,159.634 255.5,161C 254.167,163.782 254.667,166.282 257,168.5C 258.711,167.419 260.211,167.752 261.5,169.5 Z"/></g>
<g><path style="opacity:1" fill="#757a7b" d="M 235.5,169.5 C 228.583,183.991 222.25,198.658 216.5,213.5C 220.466,199.6 225.799,186.266 232.5,173.5C 233.5,172.167 234.5,170.833 235.5,169.5 Z"/></g>
<g><path style="opacity:1" fill="#d4d7e0" d="M 275.5,221.5 C 272.658,218.757 269.325,216.59 265.5,215C 261.865,208.695 256.698,204.195 250,201.5C 246.391,203.546 243.557,206.38 241.5,210C 241.833,210.5 242.167,211 242.5,211.5C 244.46,210.277 246.293,208.944 248,207.5C 248.093,210.007 248.926,212.174 250.5,214C 255.441,214.966 259.108,217.632 261.5,222C 264.781,224.555 268.281,226.722 272,228.5C 273.749,227.701 275.082,228.368 276,230.5C 277.518,229.837 278.685,228.837 279.5,227.5C 281.853,229.86 283.853,232.527 285.5,235.5C 285.785,237.288 285.452,238.955 284.5,240.5C 281.643,239.037 278.643,238.037 275.5,237.5C 271.37,232.869 267.037,228.369 262.5,224C 256.962,222.634 252.295,219.8 248.5,215.5C 244.996,217.418 241.663,219.584 238.5,222C 230.638,229.775 222.971,237.775 215.5,246C 214.184,246.528 213.517,246.028 213.5,244.5C 217.364,237.414 221.698,230.748 226.5,224.5C 230.21,220.792 233.543,216.792 236.5,212.5C 239.264,208.49 241.931,204.323 244.5,200C 245.185,197.205 245.685,194.372 246,191.5C 246.667,190.833 247.333,190.167 248,189.5C 248.498,186.518 248.665,183.518 248.5,180.5C 248.5,179.167 248.5,177.833 248.5,176.5C 248.369,175.624 248.702,174.957 249.5,174.5C 257.925,190.355 266.592,206.021 275.5,221.5 Z"/></g>
<g><path style="opacity:1" fill="#35404a" d="M 183.5,171.5 C 175.721,174.28 168.387,177.947 161.5,182.5C 158.942,184.55 156.442,186.883 154,189.5C 153.383,190.449 153.549,191.282 154.5,192C 150.876,194.648 146.876,195.648 142.5,195C 140.203,193.851 137.87,192.685 135.5,191.5C 134.353,191.818 133.519,192.484 133,193.5C 132.517,192.552 132.351,191.552 132.5,190.5C 133.71,190.068 134.71,189.401 135.5,188.5C 139.182,188.665 142.848,188.499 146.5,188C 154.526,183.987 162.526,179.987 170.5,176C 170.957,175.586 171.291,175.086 171.5,174.5C 169.827,172.477 169.16,170.144 169.5,167.5C 172.789,166.626 176.123,165.959 179.5,165.5C 179.739,167.467 179.406,169.301 178.5,171C 180.134,171.494 181.801,171.66 183.5,171.5 Z"/></g>
<g><path style="opacity:1" fill="#bdc3c4" d="M 168.5,187.5 C 169.598,188.397 169.598,189.23 168.5,190C 175.03,190.716 181.363,192.216 187.5,194.5C 188.584,194.315 189.584,193.982 190.5,193.5C 190.167,194.833 189.833,196.167 189.5,197.5C 180.317,194.737 170.984,193.237 161.5,193C 159.574,193.422 158.574,194.589 158.5,196.5C 157.833,196.5 157.5,196.833 157.5,197.5C 155.4,199.71 154.4,202.376 154.5,205.5C 155.053,208.817 155.386,212.15 155.5,215.5C 155.672,216.492 155.338,217.158 154.5,217.5C 151.385,209.896 151.885,202.562 156,195.5C 157.371,193.959 158.871,192.625 160.5,191.5C 163.167,190.167 165.833,188.833 168.5,187.5 Z"/></g>
<g><path style="opacity:1" fill="#d2d5df" d="M 232.5,173.5 C 225.799,186.266 220.466,199.6 216.5,213.5C 215.89,214.391 215.557,215.391 215.5,216.5C 213.886,217.271 212.386,218.271 211,219.5C 203.683,217.349 198.85,212.682 196.5,205.5C 196.997,203.182 197.33,200.848 197.5,198.5C 197.5,197.833 197.5,197.167 197.5,196.5C 198.117,196.611 198.617,196.944 199,197.5C 199.948,195.43 201.448,193.93 203.5,193C 202.376,192.751 201.376,192.251 200.5,191.5C 200.846,190.304 201.346,190.304 202,191.5C 203.671,189.724 205.504,189.39 207.5,190.5C 217.15,189.089 224.316,184.089 229,175.5C 229.816,174.177 230.983,173.511 232.5,173.5 Z"/></g>
<g><path style="opacity:1" fill="#585f61" d="M 189.5,197.5 C 189.011,198.995 188.345,200.329 187.5,201.5C 183.837,200.734 180.171,199.9 176.5,199C 171.168,192.881 165.168,192.048 158.5,196.5C 158.574,194.589 159.574,193.422 161.5,193C 170.984,193.237 180.317,194.737 189.5,197.5 Z"/></g>
<g><path style="opacity:1" fill="#0e131a" d="M 307.5,179.5 C 317.369,182.766 327.036,186.599 336.5,191C 338.618,192.049 340.284,193.549 341.5,195.5C 339.956,195.297 338.622,194.63 337.5,193.5C 336.304,193.846 336.304,194.346 337.5,195C 336.175,194.852 335.008,195.018 334,195.5C 333.182,201.438 331.682,207.104 329.5,212.5C 330.552,212.351 331.552,212.517 332.5,213C 331.328,213.419 330.328,214.085 329.5,215C 330.833,215.667 330.833,216.333 329.5,217C 325.006,218.633 321.506,217.133 319,212.5C 318.721,209.394 318.888,206.561 319.5,204C 318.207,203.51 316.873,203.343 315.5,203.5C 315.657,202.127 315.49,200.793 315,199.5C 314.667,200.167 314.333,200.833 314,201.5C 312.811,199.767 311.644,198.1 310.5,196.5C 310.029,194.421 309.363,192.421 308.5,190.5C 310.943,188.561 313.277,186.394 315.5,184C 312.552,182.763 309.885,181.263 307.5,179.5 Z"/></g>
<g><path style="opacity:1" fill="#979d9f" d="M 364.5,185.5 C 365.871,187.936 366.871,190.603 367.5,193.5C 367.5,194.833 367.5,196.167 367.5,197.5C 365.073,197.523 362.74,198.023 360.5,199C 357.446,201.194 354.112,202.861 350.5,204C 349.299,204.903 348.465,206.069 348,207.5C 346.812,206.437 346.312,205.103 346.5,203.5C 351.97,199.778 357.804,195.778 364,191.5C 364.495,189.527 364.662,187.527 364.5,185.5 Z"/></g>
<g><path style="opacity:1" fill="#61707f" d="M 248.5,176.5 C 248.5,177.833 248.5,179.167 248.5,180.5C 244.817,191.19 240.817,201.856 236.5,212.5C 233.543,216.792 230.21,220.792 226.5,224.5C 229.982,218.88 233.482,213.213 237,207.5C 237.438,204.624 238.438,201.957 240,199.5C 240.497,196.854 240.664,194.187 240.5,191.5C 242.407,186.016 245.073,181.016 248.5,176.5 Z"/></g>
<g><path style="opacity:1" fill="#909cae" d="M 248.5,180.5 C 248.665,183.518 248.498,186.518 248,189.5C 247.333,190.167 246.667,190.833 246,191.5C 245.685,194.372 245.185,197.205 244.5,200C 241.931,204.323 239.264,208.49 236.5,212.5C 240.817,201.856 244.817,191.19 248.5,180.5 Z"/></g>
<g><path style="opacity:1" fill="#656769" d="M 369.5,174.5 C 370.458,179.658 371.125,184.991 371.5,190.5C 370.642,196.017 369.809,201.683 369,207.5C 368.586,207.957 368.086,208.291 367.5,208.5C 360.982,204.831 354.815,205.497 349,210.5C 348.392,212.154 347.892,213.821 347.5,215.5C 345.358,225.409 343.025,235.409 340.5,245.5C 340.624,246.107 340.957,246.44 341.5,246.5C 341.167,247.5 340.5,248.167 339.5,248.5C 338.982,247.423 338.648,246.256 338.5,245C 339.622,240.559 340.289,236.059 340.5,231.5C 343.661,221.191 345.328,210.525 345.5,199.5C 346.434,200.568 346.768,201.901 346.5,203.5C 346.312,205.103 346.812,206.437 348,207.5C 348.465,206.069 349.299,204.903 350.5,204C 354.112,202.861 357.446,201.194 360.5,199C 362.74,198.023 365.073,197.523 367.5,197.5C 367.5,196.167 367.5,194.833 367.5,193.5C 368.268,194.263 368.768,195.263 369,196.5C 369.5,189.174 369.666,181.841 369.5,174.5 Z"/></g>
<g><path style="opacity:1" fill="#060b0f" d="M 341.5,195.5 C 343.167,196.5 344.5,197.833 345.5,199.5C 345.328,210.525 343.661,221.191 340.5,231.5C 340.649,230.448 340.483,229.448 340,228.5C 339.016,230.795 338.183,230.461 337.5,227.5C 337.351,225.496 338.018,223.496 339.5,221.5C 339.281,220.062 338.781,218.729 338,217.5C 337.667,218.167 337.333,218.833 337,219.5C 335.305,219.776 333.472,219.443 331.5,218.5C 330.062,218.719 328.729,219.219 327.5,220C 327.509,221.851 326.676,223.685 325,225.5C 323.782,223.981 322.282,222.814 320.5,222C 321.451,221.282 321.617,220.449 321,219.5C 319.173,218.341 317.507,217.008 316,215.5C 313.572,209.318 311.739,202.985 310.5,196.5C 311.644,198.1 312.811,199.767 314,201.5C 314.333,200.833 314.667,200.167 315,199.5C 315.49,200.793 315.657,202.127 315.5,203.5C 316.873,203.343 318.207,203.51 319.5,204C 318.888,206.561 318.721,209.394 319,212.5C 321.506,217.133 325.006,218.633 329.5,217C 330.833,216.333 330.833,215.667 329.5,215C 330.328,214.085 331.328,213.419 332.5,213C 331.552,212.517 330.552,212.351 329.5,212.5C 331.682,207.104 333.182,201.438 334,195.5C 335.008,195.018 336.175,194.852 337.5,195C 336.304,194.346 336.304,193.846 337.5,193.5C 338.622,194.63 339.956,195.297 341.5,195.5 Z"/></g>
<g><path style="opacity:1" fill="#c1c5cb" d="M 301.5,194.5 C 302.738,196.214 303.405,198.214 303.5,200.5C 303.666,205.179 303.499,209.845 303,214.5C 298.625,218.509 294.292,222.509 290,226.5C 289.241,224.937 288.074,223.937 286.5,223.5C 285.364,219.426 284.031,215.426 282.5,211.5C 284.229,212.117 285.729,213.117 287,214.5C 291.63,212.032 296.13,209.366 300.5,206.5C 302.747,202.693 303.081,198.693 301.5,194.5 Z"/></g>
<g><path style="opacity:1" fill="#565a5e" d="M 132.5,175.5 C 132.5,180.5 132.5,185.5 132.5,190.5C 132.351,191.552 132.517,192.552 133,193.5C 133.519,192.484 134.353,191.818 135.5,191.5C 137.87,192.685 140.203,193.851 142.5,195C 146.876,195.648 150.876,194.648 154.5,192C 153.549,191.282 153.383,190.449 154,189.5C 156.442,186.883 158.942,184.55 161.5,182.5C 161.78,185.272 161.113,187.772 159.5,190C 160.056,190.383 160.389,190.883 160.5,191.5C 158.871,192.625 157.371,193.959 156,195.5C 151.885,202.562 151.385,209.896 154.5,217.5C 155.963,226.815 157.296,236.148 158.5,245.5C 153.833,241.167 149.167,236.833 144.5,232.5C 135.798,224.088 131.131,213.755 130.5,201.5C 130.971,192.663 131.638,183.997 132.5,175.5 Z"/></g>
<g><path style="opacity:1" fill="#eff1f4" d="M 275.5,221.5 C 277.192,223.205 278.525,225.205 279.5,227.5C 278.685,228.837 277.518,229.837 276,230.5C 275.082,228.368 273.749,227.701 272,228.5C 268.281,226.722 264.781,224.555 261.5,222C 259.108,217.632 255.441,214.966 250.5,214C 248.926,212.174 248.093,210.007 248,207.5C 246.293,208.944 244.46,210.277 242.5,211.5C 242.167,211 241.833,210.5 241.5,210C 243.557,206.38 246.391,203.546 250,201.5C 256.698,204.195 261.865,208.695 265.5,215C 269.325,216.59 272.658,218.757 275.5,221.5 Z"/></g>
<g><path style="opacity:1" fill="#414244" d="M 371.5,190.5 C 371.666,196.176 371.499,201.843 371,207.5C 370.495,210.865 369.328,213.865 367.5,216.5C 367.19,215.262 366.69,215.262 366,216.5C 363.787,221.218 360.954,225.551 357.5,229.5C 357.474,225.859 356.641,222.193 355,218.5C 353.004,218.004 351.337,217.004 350,215.5C 349.667,216.167 349.333,216.833 349,217.5C 348.722,216.584 348.222,215.918 347.5,215.5C 347.892,213.821 348.392,212.154 349,210.5C 354.815,205.497 360.982,204.831 367.5,208.5C 368.086,208.291 368.586,207.957 369,207.5C 369.809,201.683 370.642,196.017 371.5,190.5 Z"/></g>
<g><path style="opacity:1" fill="#060b0d" d="M 157.5,197.5 C 158.675,197.281 159.675,197.614 160.5,198.5C 159.376,204.448 159.21,210.448 160,216.5C 161.049,215.483 162.216,215.316 163.5,216C 162.739,218.179 163.072,220.345 164.5,222.5C 167.084,223.393 169.751,223.726 172.5,223.5C 172.34,225.199 172.506,226.866 173,228.5C 173.667,229.833 174.333,229.833 175,228.5C 175.402,229.872 175.902,231.205 176.5,232.5C 176.135,237.015 176.135,241.849 176.5,247C 173.729,253.294 170.395,253.961 166.5,249C 164.751,248.215 163.084,247.382 161.5,246.5C 159.675,236.017 157.675,225.684 155.5,215.5C 155.386,212.15 155.053,208.817 154.5,205.5C 154.4,202.376 155.4,199.71 157.5,197.5 Z"/></g>
<g><path style="opacity:1" fill="#2b3440" d="M 240.5,191.5 C 240.664,194.187 240.497,196.854 240,199.5C 238.438,201.957 237.438,204.624 237,207.5C 233.482,213.213 229.982,218.88 226.5,224.5C 221.698,230.748 217.364,237.414 213.5,244.5C 212.35,245.85 211.683,245.684 211.5,244C 213.316,240.204 214.983,236.37 216.5,232.5C 220.419,226.33 224.086,219.997 227.5,213.5C 231.829,206.203 236.162,198.87 240.5,191.5 Z"/></g>
<g><path style="opacity:1" fill="#2a2c2c" d="M 347.5,215.5 C 348.222,215.918 348.722,216.584 349,217.5C 349.333,216.833 349.667,216.167 350,215.5C 351.337,217.004 353.004,218.004 355,218.5C 356.641,222.193 357.474,225.859 357.5,229.5C 360.954,225.551 363.787,221.218 366,216.5C 366.69,215.262 367.19,215.262 367.5,216.5C 366.56,219.714 365.06,222.714 363,225.5C 357,232.167 351,238.833 345,245.5C 344.517,246.448 344.351,247.448 344.5,248.5C 343.5,247.833 342.5,247.167 341.5,246.5C 340.957,246.44 340.624,246.107 340.5,245.5C 343.025,235.409 345.358,225.409 347.5,215.5 Z"/></g>
<g><path style="opacity:1" fill="#9fa4ab" d="M 197.5,198.5 C 197.33,200.848 196.997,203.182 196.5,205.5C 198.85,212.682 203.683,217.349 211,219.5C 212.386,218.271 213.886,217.271 215.5,216.5C 214.729,220.703 213.396,224.703 211.5,228.5C 207.936,227.021 204.27,225.687 200.5,224.5C 199.571,223.311 199.238,221.978 199.5,220.5C 194.396,219.709 192.396,216.709 193.5,211.5C 194.078,206.835 195.411,202.501 197.5,198.5 Z"/></g>
<g><path style="opacity:1" fill="#0d1115" d="M 187.5,201.5 C 183.33,220.376 179.663,239.21 176.5,258C 179.163,259.592 181.829,259.426 184.5,257.5C 184.5,258.5 184.5,259.5 184.5,260.5C 183.833,260.833 183.167,261.167 182.5,261.5C 180.473,261.662 178.473,261.495 176.5,261C 174.499,258.675 172.166,256.842 169.5,255.5C 166.997,253.167 164.331,251.001 161.5,249C 159.655,247.872 157.655,247.372 155.5,247.5C 152.078,242.322 148.411,237.322 144.5,232.5C 149.167,236.833 153.833,241.167 158.5,245.5C 159.458,245.953 160.292,246.619 161,247.5C 161.399,247.272 161.565,246.938 161.5,246.5C 163.084,247.382 164.751,248.215 166.5,249C 170.395,253.961 173.729,253.294 176.5,247C 176.135,241.849 176.135,237.015 176.5,232.5C 175.902,231.205 175.402,229.872 175,228.5C 174.333,229.833 173.667,229.833 173,228.5C 172.506,226.866 172.34,225.199 172.5,223.5C 169.751,223.726 167.084,223.393 164.5,222.5C 163.072,220.345 162.739,218.179 163.5,216C 162.216,215.316 161.049,215.483 160,216.5C 159.21,210.448 159.376,204.448 160.5,198.5C 159.675,197.614 158.675,197.281 157.5,197.5C 157.5,196.833 157.833,196.5 158.5,196.5C 165.168,192.048 171.168,192.881 176.5,199C 180.171,199.9 183.837,200.734 187.5,201.5 Z"/></g>
<g><path style="opacity:1" fill="#666b70" d="M 193.5,211.5 C 192.396,216.709 194.396,219.709 199.5,220.5C 199.238,221.978 199.571,223.311 200.5,224.5C 204.27,225.687 207.936,227.021 211.5,228.5C 210.508,231.823 209.508,235.156 208.5,238.5C 203.228,235.19 197.894,231.857 192.5,228.5C 191.638,227.234 190.971,225.901 190.5,224.5C 190.74,219.88 191.74,215.547 193.5,211.5 Z"/></g>
<g><path style="opacity:1" fill="#a3a5ac" d="M 303.5,200.5 C 305.612,206.607 307.278,212.941 308.5,219.5C 308.879,223.576 307.879,227.243 305.5,230.5C 304.609,231.59 303.609,231.59 302.5,230.5C 298.795,233.547 295.128,236.547 291.5,239.5C 290.632,233.897 288.965,228.564 286.5,223.5C 288.074,223.937 289.241,224.937 290,226.5C 294.292,222.509 298.625,218.509 303,214.5C 303.499,209.845 303.666,205.179 303.5,200.5 Z"/></g>
<g><path style="opacity:1" fill="#505352" d="M 249.5,219.5 C 246.911,220.419 244.911,222.086 243.5,224.5C 239.457,227.387 235.457,230.553 231.5,234C 227.662,238.398 223.662,242.565 219.5,246.5C 220.412,244.405 221.579,242.405 223,240.5C 231.163,233.337 238.996,225.837 246.5,218C 247.998,217.415 248.998,217.915 249.5,219.5 Z"/></g>
<g><path style="opacity:1" fill="#888a8f" d="M 308.5,219.5 C 311.865,233.656 314.865,247.989 317.5,262.5C 308.014,260.511 300.181,255.844 294,248.5C 297.024,254.191 301.524,258.691 307.5,262C 306.944,262.383 306.611,262.883 306.5,263.5C 298.756,259.423 293.089,253.423 289.5,245.5C 289.389,244.883 289.056,244.383 288.5,244C 285.774,243.818 283.107,243.318 280.5,242.5C 278.851,240.667 277.184,239 275.5,237.5C 278.643,238.037 281.643,239.037 284.5,240.5C 285.452,238.955 285.785,237.288 285.5,235.5C 287.965,239.067 290.465,242.734 293,246.5C 293.609,243.935 293.109,241.601 291.5,239.5C 295.128,236.547 298.795,233.547 302.5,230.5C 303.609,231.59 304.609,231.59 305.5,230.5C 307.879,227.243 308.879,223.576 308.5,219.5 Z"/></g>
<g><path style="opacity:1" fill="#040608" d="M 249.5,219.5 C 250.806,221.473 252.473,223.139 254.5,224.5C 256.922,228.344 259.589,232.01 262.5,235.5C 272.081,247.921 282.247,259.921 293,271.5C 293.483,272.448 293.649,273.448 293.5,274.5C 289.888,273.361 286.554,271.694 283.5,269.5C 278.644,264.832 274.477,259.499 271,253.5C 267.172,251.671 264.839,248.671 264,244.5C 263.667,244.833 263.333,245.167 263,245.5C 259.83,240.633 256.664,235.8 253.5,231C 254.388,229.283 253.721,228.116 251.5,227.5C 248.03,228.978 245.863,231.645 245,235.5C 243.59,236.787 242.09,237.954 240.5,239C 240.833,239.333 241.167,239.667 241.5,240C 235.5,246.842 229.167,253.342 222.5,259.5C 220.815,262.213 219.149,264.88 217.5,267.5C 214.936,268.866 212.436,270.533 210,272.5C 209.943,274.91 208.776,276.244 206.5,276.5C 205.833,276.5 205.5,276.167 205.5,275.5C 204.261,274.788 203.761,273.788 204,272.5C 211.689,266.106 217.689,258.439 222,249.5C 228.117,246.711 232.117,242.045 234,235.5C 238.1,232.629 241.267,228.963 243.5,224.5C 244.911,222.086 246.911,220.419 249.5,219.5 Z"/></g>
<g><path style="opacity:1" fill="#888e91" d="M 275.5,237.5 C 270.497,237.915 266.33,236.248 263,232.5C 261.232,228.562 258.398,225.895 254.5,224.5C 252.473,223.139 250.806,221.473 249.5,219.5C 248.998,217.915 247.998,217.415 246.5,218C 238.996,225.837 231.163,233.337 223,240.5C 221.579,242.405 220.412,244.405 219.5,246.5C 215.148,248.17 211.815,251.004 209.5,255C 204.521,257.824 199.521,260.658 194.5,263.5C 188.896,265.474 183.229,267.141 177.5,268.5C 184.597,265.843 191.597,262.677 198.5,259C 199.795,256.242 201.461,253.742 203.5,251.5C 203.333,251.167 203.167,250.833 203,250.5C 202.184,251.823 201.017,252.489 199.5,252.5C 203.167,249.5 206.5,246.167 209.5,242.5C 211.058,238.611 213.391,235.278 216.5,232.5C 214.983,236.37 213.316,240.204 211.5,244C 211.683,245.684 212.35,245.85 213.5,244.5C 213.517,246.028 214.184,246.528 215.5,246C 222.971,237.775 230.638,229.775 238.5,222C 241.663,219.584 244.996,217.418 248.5,215.5C 252.295,219.8 256.962,222.634 262.5,224C 267.037,228.369 271.37,232.869 275.5,237.5 Z"/></g>
<g><path style="opacity:1" fill="#404449" d="M 190.5,224.5 C 190.971,225.901 191.638,227.234 192.5,228.5C 197.894,231.857 203.228,235.19 208.5,238.5C 208.232,240.099 208.566,241.432 209.5,242.5C 206.5,246.167 203.167,249.5 199.5,252.5C 198.341,254.25 196.674,255.25 194.5,255.5C 195.8,254.173 197.133,252.84 198.5,251.5C 197.975,250.808 197.308,250.308 196.5,250C 197.833,249.333 199.167,248.667 200.5,248C 199.939,246.434 200.606,245.101 202.5,244C 200.699,243.683 200.366,243.016 201.5,242C 197.102,240.822 193.102,238.989 189.5,236.5C 188.329,242.246 186.996,247.246 185.5,251.5C 186.344,242.223 188.011,233.223 190.5,224.5 Z"/></g>
<g><path style="opacity:1" fill="#919399" d="M 155.5,215.5 C 157.675,225.684 159.675,236.017 161.5,246.5C 161.565,246.938 161.399,247.272 161,247.5C 160.292,246.619 159.458,245.953 158.5,245.5C 157.296,236.148 155.963,226.815 154.5,217.5C 155.338,217.158 155.672,216.492 155.5,215.5 Z"/></g>
<g><path style="opacity:1" fill="#070d15" d="M 283.5,269.5 C 282.089,271.539 280.089,272.539 277.5,272.5C 276.5,270.833 275.167,269.5 273.5,268.5C 269.472,264.141 265.472,259.807 261.5,255.5C 257.545,250.373 253.378,245.373 249,240.5C 248.601,240.728 248.435,241.062 248.5,241.5C 244.53,246.476 240.53,251.476 236.5,256.5C 232.527,261.14 228.194,265.473 223.5,269.5C 223.44,268.957 223.107,268.624 222.5,268.5C 221.278,270.978 219.278,271.978 216.5,271.5C 216.676,275.192 215.009,277.192 211.5,277.5C 211.343,276.127 211.51,274.793 212,273.5C 214.38,271.955 216.214,269.955 217.5,267.5C 219.149,264.88 220.815,262.213 222.5,259.5C 229.167,253.342 235.5,246.842 241.5,240C 241.167,239.667 240.833,239.333 240.5,239C 242.09,237.954 243.59,236.787 245,235.5C 245.863,231.645 248.03,228.978 251.5,227.5C 253.721,228.116 254.388,229.283 253.5,231C 256.664,235.8 259.83,240.633 263,245.5C 263.333,245.167 263.667,244.833 264,244.5C 264.839,248.671 267.172,251.671 271,253.5C 274.477,259.499 278.644,264.832 283.5,269.5 Z"/></g>
<g><path style="opacity:1" fill="#646467" d="M 254.5,224.5 C 258.398,225.895 261.232,228.562 263,232.5C 266.33,236.248 270.497,237.915 275.5,237.5C 277.184,239 278.851,240.667 280.5,242.5C 283.107,243.318 285.774,243.818 288.5,244C 289.056,244.383 289.389,244.883 289.5,245.5C 282.059,247.974 275.393,246.308 269.5,240.5C 268.614,239.675 268.281,238.675 268.5,237.5C 266.315,237.296 264.315,236.63 262.5,235.5C 259.589,232.01 256.922,228.344 254.5,224.5 Z"/></g>
<g><path style="opacity:1" fill="#293137" d="M 194.5,255.5 C 191.183,257.137 187.85,258.804 184.5,260.5C 184.5,259.5 184.5,258.5 184.5,257.5C 184.205,255.265 184.539,253.265 185.5,251.5C 186.996,247.246 188.329,242.246 189.5,236.5C 193.102,238.989 197.102,240.822 201.5,242C 200.366,243.016 200.699,243.683 202.5,244C 200.606,245.101 199.939,246.434 200.5,248C 199.167,248.667 197.833,249.333 196.5,250C 197.308,250.308 197.975,250.808 198.5,251.5C 197.133,252.84 195.8,254.173 194.5,255.5 Z"/></g>
<g><path style="opacity:1" fill="#4d5052" d="M 219.5,246.5 C 217.286,249.234 215.286,252.234 213.5,255.5C 207.128,259.452 200.628,263.118 194,266.5C 180.999,270.195 167.832,273.195 154.5,275.5C 158.041,273.765 161.707,272.431 165.5,271.5C 169.343,269.914 173.343,268.914 177.5,268.5C 183.229,267.141 188.896,265.474 194.5,263.5C 199.521,260.658 204.521,257.824 209.5,255C 211.815,251.004 215.148,248.17 219.5,246.5 Z"/></g>
<g><path style="opacity:1" fill="#c2c4c7" d="M 261.5,255.5 C 261.631,256.239 261.464,256.906 261,257.5C 258.347,257.318 255.68,256.985 253,256.5C 251.842,256.998 251.009,257.831 250.5,259C 249.545,267.124 249.212,275.29 249.5,283.5C 249.5,289.167 249.5,294.833 249.5,300.5C 249.5,301.167 249.167,301.5 248.5,301.5C 248.5,281.5 248.5,261.5 248.5,241.5C 248.435,241.062 248.601,240.728 249,240.5C 253.378,245.373 257.545,250.373 261.5,255.5 Z"/></g>
<g><path style="opacity:1" fill="#c9cfde" d="M 341.5,246.5 C 342.5,247.167 343.5,247.833 344.5,248.5C 362.079,260.784 379.079,273.784 395.5,287.5C 382.528,284.727 369.528,282.06 356.5,279.5C 356.158,278.662 355.492,278.328 354.5,278.5C 351.167,277.5 347.833,276.5 344.5,275.5C 344.611,274.883 344.944,274.383 345.5,274C 336.998,270.584 328.998,266.417 321.5,261.5C 327.5,257.167 333.5,252.833 339.5,248.5C 340.5,248.167 341.167,247.5 341.5,246.5 Z"/></g>
<g><path style="opacity:1" fill="#8e9cb2" d="M 155.5,247.5 C 157.655,247.372 159.655,247.872 161.5,249C 164.331,251.001 166.997,253.167 169.5,255.5C 169.67,256.822 169.337,257.989 168.5,259C 158.693,259.7 151.026,264.033 145.5,272C 146.167,272.333 146.833,272.667 147.5,273C 145.382,273.26 143.716,274.26 142.5,276C 145.47,275.842 148.47,275.342 151.5,274.5C 152.416,274.543 153.083,274.876 153.5,275.5C 138.09,280.269 122.424,283.936 106.5,286.5C 107.543,283.944 109.21,281.777 111.5,280C 126.056,268.902 140.723,258.068 155.5,247.5 Z"/></g>
<g><path style="opacity:1" fill="#ccd4de" d="M 317.5,262.5 C 321.773,264.636 326.106,266.803 330.5,269C 323.167,268.168 316.167,266.002 309.5,262.5C 308.817,262.863 308.15,263.196 307.5,263.5C 307.167,263.5 306.833,263.5 306.5,263.5C 306.611,262.883 306.944,262.383 307.5,262C 301.524,258.691 297.024,254.191 294,248.5C 300.181,255.844 308.014,260.511 317.5,262.5 Z"/></g>
<g><path style="opacity:1" fill="#a6b4c1" d="M 177.5,268.5 C 173.343,268.914 169.343,269.914 165.5,271.5C 163.621,271.607 163.288,271.107 164.5,270C 170.731,267.435 176.731,264.602 182.5,261.5C 183.167,261.167 183.833,260.833 184.5,260.5C 187.85,258.804 191.183,257.137 194.5,255.5C 196.674,255.25 198.341,254.25 199.5,252.5C 201.017,252.489 202.184,251.823 203,250.5C 203.167,250.833 203.333,251.167 203.5,251.5C 201.461,253.742 199.795,256.242 198.5,259C 191.597,262.677 184.597,265.843 177.5,268.5 Z"/></g>
<g><path style="opacity:1" fill="#6e8199" d="M 169.5,255.5 C 172.166,256.842 174.499,258.675 176.5,261C 178.473,261.495 180.473,261.662 182.5,261.5C 176.731,264.602 170.731,267.435 164.5,270C 163.288,271.107 163.621,271.607 165.5,271.5C 161.707,272.431 158.041,273.765 154.5,275.5C 154.167,275.5 153.833,275.5 153.5,275.5C 153.083,274.876 152.416,274.543 151.5,274.5C 148.47,275.342 145.47,275.842 142.5,276C 143.716,274.26 145.382,273.26 147.5,273C 146.833,272.667 146.167,272.333 145.5,272C 151.026,264.033 158.693,259.7 168.5,259C 169.337,257.989 169.67,256.822 169.5,255.5 Z"/></g>
<g><path style="opacity:1" fill="#8e97a3" d="M 321.5,261.5 C 328.998,266.417 336.998,270.584 345.5,274C 344.944,274.383 344.611,274.883 344.5,275.5C 334.365,272.899 324.365,269.899 314.5,266.5C 311.843,266.065 309.509,265.065 307.5,263.5C 308.15,263.196 308.817,262.863 309.5,262.5C 316.167,266.002 323.167,268.168 330.5,269C 326.106,266.803 321.773,264.636 317.5,262.5C 318.959,262.567 320.292,262.234 321.5,261.5 Z"/></g>
<g><path style="opacity:1" fill="#8a8b8b" d="M 261.5,255.5 C 265.472,259.807 269.472,264.141 273.5,268.5C 273.657,269.873 273.49,271.207 273,272.5C 271.951,271.483 270.784,271.316 269.5,272C 266.121,274.072 262.787,276.072 259.5,278C 257.667,279.167 256.167,280.667 255,282.5C 253.602,281.949 252.268,281.616 251,281.5C 250.722,282.416 250.222,283.082 249.5,283.5C 249.212,275.29 249.545,267.124 250.5,259C 251.009,257.831 251.842,256.998 253,256.5C 255.68,256.985 258.347,257.318 261,257.5C 261.464,256.906 261.631,256.239 261.5,255.5 Z"/></g>
<g><path style="opacity:1" fill="#565757" d="M 248.5,241.5 C 248.5,261.5 248.5,281.5 248.5,301.5C 248.167,301.5 247.833,301.5 247.5,301.5C 246.167,299.833 244.833,298.167 243.5,296.5C 244.147,290.066 244.481,283.232 244.5,276C 243.186,271.576 240.853,267.743 237.5,264.5C 237.833,263.167 238.167,261.833 238.5,260.5C 237.37,259.378 236.703,258.044 236.5,256.5C 240.53,251.476 244.53,246.476 248.5,241.5 Z"/></g>
<g><path style="opacity:1" fill="#2a2c2d" d="M 262.5,235.5 C 264.315,236.63 266.315,237.296 268.5,237.5C 268.281,238.675 268.614,239.675 269.5,240.5C 275.393,246.308 282.059,247.974 289.5,245.5C 293.089,253.423 298.756,259.423 306.5,263.5C 306.833,263.5 307.167,263.5 307.5,263.5C 309.509,265.065 311.843,266.065 314.5,266.5C 313.264,268.828 311.264,269.994 308.5,270C 309.836,273.822 309.17,277.322 306.5,280.5C 308.207,281.873 309.54,283.539 310.5,285.5C 309.417,285.461 308.417,285.127 307.5,284.5C 306.824,285.602 306.158,286.602 305.5,287.5C 305.649,286.448 305.483,285.448 305,284.5C 301.571,280.561 297.737,277.228 293.5,274.5C 293.649,273.448 293.483,272.448 293,271.5C 282.247,259.921 272.081,247.921 262.5,235.5 Z"/></g>
<g><path style="opacity:1" fill="#3c3e42" d="M 314.5,266.5 C 324.365,269.899 334.365,272.899 344.5,275.5C 347.833,276.5 351.167,277.5 354.5,278.5C 354.631,279.376 354.298,280.043 353.5,280.5C 349.417,279.852 345.583,278.518 342,276.5C 341.586,276.957 341.086,277.291 340.5,277.5C 333.734,274.05 326.734,273.55 319.5,276C 314.853,277.634 313.52,280.634 315.5,285C 330.833,285.667 346.167,285.667 361.5,285C 358.567,283.613 356.9,281.78 356.5,279.5C 369.528,282.06 382.528,284.727 395.5,287.5C 391.702,288.483 387.702,288.817 383.5,288.5C 383.611,287.883 383.944,287.383 384.5,287C 359.761,286.824 335.094,286.324 310.5,285.5C 309.54,283.539 308.207,281.873 306.5,280.5C 309.17,277.322 309.836,273.822 308.5,270C 311.264,269.994 313.264,268.828 314.5,266.5 Z"/></g>
<g><path style="opacity:1" fill="#1f2124" d="M 243.5,224.5 C 241.267,228.963 238.1,232.629 234,235.5C 232.117,242.045 228.117,246.711 222,249.5C 217.689,258.439 211.689,266.106 204,272.5C 203.761,273.788 204.261,274.788 205.5,275.5C 202.081,277.412 199.081,279.912 196.5,283C 199.438,284.839 202.771,286.839 206.5,289C 205.24,290.113 204.073,290.28 203,289.5C 201.444,290.52 200.278,291.853 199.5,293.5C 200.198,294.863 200.198,296.029 199.5,297C 202.167,298.862 204.5,301.028 206.5,303.5C 207.906,303.973 208.573,304.973 208.5,306.5C 206.833,305.833 205.167,305.167 203.5,304.5C 200.51,301.208 197.51,297.874 194.5,294.5C 193.833,291.167 193.167,287.833 192.5,284.5C 190.784,284.629 189.117,284.962 187.5,285.5C 187.082,284.778 186.416,284.278 185.5,284C 176.167,283.667 166.833,283.333 157.5,283C 155.33,281.414 152.996,280.08 150.5,279C 151.591,277.45 152.924,276.283 154.5,275.5C 167.832,273.195 180.999,270.195 194,266.5C 200.628,263.118 207.128,259.452 213.5,255.5C 215.286,252.234 217.286,249.234 219.5,246.5C 223.662,242.565 227.662,238.398 231.5,234C 235.457,230.553 239.457,227.387 243.5,224.5 Z"/></g>
<g><path style="opacity:1" fill="#727272" d="M 273.5,268.5 C 275.167,269.5 276.5,270.833 277.5,272.5C 278.8,273.601 279.3,274.934 279,276.5C 270.537,283.294 262.37,290.461 254.5,298C 252.922,299.094 251.255,299.928 249.5,300.5C 249.5,294.833 249.5,289.167 249.5,283.5C 250.222,283.082 250.722,282.416 251,281.5C 252.268,281.616 253.602,281.949 255,282.5C 256.167,280.667 257.667,279.167 259.5,278C 262.787,276.072 266.121,274.072 269.5,272C 270.784,271.316 271.951,271.483 273,272.5C 273.49,271.207 273.657,269.873 273.5,268.5 Z"/></g>
<g><path style="opacity:1" fill="#5d5e61" d="M 354.5,278.5 C 355.492,278.328 356.158,278.662 356.5,279.5C 356.9,281.78 358.567,283.613 361.5,285C 346.167,285.667 330.833,285.667 315.5,285C 313.52,280.634 314.853,277.634 319.5,276C 326.734,273.55 333.734,274.05 340.5,277.5C 341.086,277.291 341.586,276.957 342,276.5C 345.583,278.518 349.417,279.852 353.5,280.5C 354.298,280.043 354.631,279.376 354.5,278.5 Z"/></g>
<g><path style="opacity:1" fill="#393c3a" d="M 236.5,256.5 C 236.703,258.044 237.37,259.378 238.5,260.5C 238.167,261.833 237.833,263.167 237.5,264.5C 240.853,267.743 243.186,271.576 244.5,276C 244.481,283.232 244.147,290.066 243.5,296.5C 234.795,289.976 226.461,282.809 218.5,275C 220.373,273.296 222.04,271.463 223.5,269.5C 228.194,265.473 232.527,261.14 236.5,256.5 Z"/></g>
<g><path style="opacity:1" fill="#3c3e41" d="M 153.5,275.5 C 153.833,275.5 154.167,275.5 154.5,275.5C 152.924,276.283 151.591,277.45 150.5,279C 152.996,280.08 155.33,281.414 157.5,283C 166.833,283.333 176.167,283.667 185.5,284C 186.416,284.278 187.082,284.778 187.5,285.5C 165.831,285.333 144.164,285.5 122.5,286C 118.689,285.917 115.355,286.75 112.5,288.5C 110.011,288.702 107.677,288.202 105.5,287C 105.728,286.601 106.062,286.435 106.5,286.5C 122.424,283.936 138.09,280.269 153.5,275.5 Z"/></g>
<g><path style="opacity:0.999" fill="#030406" d="M 310.5,285.5 C 335.094,286.324 359.761,286.824 384.5,287C 383.944,287.383 383.611,287.883 383.5,288.5C 365.994,291.619 348.328,293.619 330.5,294.5C 324.662,293.861 318.828,293.194 313,292.5C 308.48,292.745 304.647,294.412 301.5,297.5C 301.833,296.167 302.167,294.833 302.5,293.5C 304.025,291.784 305.025,289.784 305.5,287.5C 306.158,286.602 306.824,285.602 307.5,284.5C 308.417,285.127 309.417,285.461 310.5,285.5 Z"/></g>
<g><path style="opacity:1" fill="#3d4145" d="M 205.5,275.5 C 205.5,276.167 205.833,276.5 206.5,276.5C 207.167,278.167 207.833,279.833 208.5,281.5C 214.716,287.951 221.383,293.951 228.5,299.5C 221.629,299.157 215.129,297.491 209,294.5C 207.013,295.218 205.179,296.218 203.5,297.5C 204.559,299.534 205.559,301.534 206.5,303.5C 204.5,301.028 202.167,298.862 199.5,297C 200.198,296.029 200.198,294.863 199.5,293.5C 200.278,291.853 201.444,290.52 203,289.5C 204.073,290.28 205.24,290.113 206.5,289C 202.771,286.839 199.438,284.839 196.5,283C 199.081,279.912 202.081,277.412 205.5,275.5 Z"/></g>
<g><path style="opacity:1" fill="#a5a8ad" d="M 293.5,274.5 C 297.737,277.228 301.571,280.561 305,284.5C 305.483,285.448 305.649,286.448 305.5,287.5C 305.025,289.784 304.025,291.784 302.5,293.5C 299.86,296.806 296.86,299.806 293.5,302.5C 293.383,300.516 294.05,298.85 295.5,297.5C 294.687,296.186 293.687,295.019 292.5,294C 288.833,293.333 285.167,293.333 281.5,294C 279.545,296.071 277.212,296.738 274.5,296C 279.167,292 283.833,288 288.5,284C 288.272,283.601 287.938,283.435 287.5,283.5C 290.315,281.023 292.315,278.023 293.5,274.5 Z"/></g>
<g><path style="opacity:0.467" fill="#0a0c0e" d="M 194.5,294.5 C 192.825,292.998 190.992,291.665 189,290.5C 185.406,291.327 181.739,291.993 178,292.5C 156.187,290.874 134.354,289.54 112.5,288.5C 115.355,286.75 118.689,285.917 122.5,286C 144.164,285.5 165.831,285.333 187.5,285.5C 189.117,284.962 190.784,284.629 192.5,284.5C 193.167,287.833 193.833,291.167 194.5,294.5 Z"/></g>
<g><path style="opacity:1" fill="#07090b" d="M 283.5,269.5 C 286.554,271.694 289.888,273.361 293.5,274.5C 292.315,278.023 290.315,281.023 287.5,283.5C 277.449,291.552 267.115,299.219 256.5,306.5C 254.183,307.907 251.683,308.907 249,309.5C 247.124,309.475 245.624,308.809 244.5,307.5C 244.953,306.542 245.619,305.708 246.5,305C 244.388,303.783 244.721,302.617 247.5,301.5C 247.833,301.5 248.167,301.5 248.5,301.5C 249.167,301.5 249.5,301.167 249.5,300.5C 251.255,299.928 252.922,299.094 254.5,298C 262.37,290.461 270.537,283.294 279,276.5C 279.3,274.934 278.8,273.601 277.5,272.5C 280.089,272.539 282.089,271.539 283.5,269.5 Z"/></g>
<g><path style="opacity:1" fill="#9da5a4" d="M 208.5,281.5 C 216.149,287.152 223.482,293.152 230.5,299.5C 229.833,299.5 229.167,299.5 228.5,299.5C 221.383,293.951 214.716,287.951 208.5,281.5 Z"/></g>
<g><path style="opacity:1" fill="#05080d" d="M 217.5,267.5 C 216.214,269.955 214.38,271.955 212,273.5C 211.51,274.793 211.343,276.127 211.5,277.5C 215.009,277.192 216.676,275.192 216.5,271.5C 219.278,271.978 221.278,270.978 222.5,268.5C 223.107,268.624 223.44,268.957 223.5,269.5C 222.04,271.463 220.373,273.296 218.5,275C 226.461,282.809 234.795,289.976 243.5,296.5C 244.833,298.167 246.167,299.833 247.5,301.5C 244.721,302.617 244.388,303.783 246.5,305C 245.619,305.708 244.953,306.542 244.5,307.5C 239.576,305.233 234.909,302.567 230.5,299.5C 223.482,293.152 216.149,287.152 208.5,281.5C 207.833,279.833 207.167,278.167 206.5,276.5C 208.776,276.244 209.943,274.91 210,272.5C 212.436,270.533 214.936,268.866 217.5,267.5 Z"/></g>
<g><path style="opacity:1" fill="#535a5e" d="M 228.5,299.5 C 229.167,299.5 229.833,299.5 230.5,299.5C 234.909,302.567 239.576,305.233 244.5,307.5C 245.624,308.809 247.124,309.475 249,309.5C 251.683,308.907 254.183,307.907 256.5,306.5C 256.833,307.167 257.167,307.833 257.5,308.5C 254.753,309.956 251.92,311.289 249,312.5C 247.2,311.68 245.366,311.014 243.5,310.5C 242.486,309.326 241.153,308.66 239.5,308.5C 237.9,307.356 236.233,306.189 234.5,305C 228.851,303.67 223.184,302.504 217.5,301.5C 214.151,300.872 211.817,302.039 210.5,305C 212.426,305.422 213.426,306.589 213.5,308.5C 211.833,307.833 210.167,307.167 208.5,306.5C 208.573,304.973 207.906,303.973 206.5,303.5C 205.559,301.534 204.559,299.534 203.5,297.5C 205.179,296.218 207.013,295.218 209,294.5C 215.129,297.491 221.629,299.157 228.5,299.5 Z"/></g>
<g><path style="opacity:1" fill="#cacdd3" d="M 287.5,283.5 C 287.938,283.435 288.272,283.601 288.5,284C 283.833,288 279.167,292 274.5,296C 277.212,296.738 279.545,296.071 281.5,294C 285.167,293.333 288.833,293.333 292.5,294C 293.687,295.019 294.687,296.186 295.5,297.5C 294.05,298.85 293.383,300.516 293.5,302.5C 287.095,309.242 280.095,315.242 272.5,320.5C 275.381,317.107 278.047,313.441 280.5,309.5C 281.325,308.614 282.325,308.281 283.5,308.5C 283.714,306.856 283.38,305.356 282.5,304C 283.167,303.667 283.833,303.333 284.5,303C 282.866,301.692 281.032,300.858 279,300.5C 274.431,301.216 269.931,302.049 265.5,303C 262.953,305.054 260.286,306.887 257.5,308.5C 257.167,307.833 256.833,307.167 256.5,306.5C 267.115,299.219 277.449,291.552 287.5,283.5 Z"/></g>
<g><path style="opacity:1" fill="#808895" d="M 239.5,308.5 C 233.248,306.941 226.915,306.441 220.5,307C 219.919,307.893 219.585,308.893 219.5,310C 220.109,312.708 221.109,315.208 222.5,317.5C 219.112,314.779 216.112,311.779 213.5,308.5C 213.426,306.589 212.426,305.422 210.5,305C 211.817,302.039 214.151,300.872 217.5,301.5C 223.184,302.504 228.851,303.67 234.5,305C 236.233,306.189 237.9,307.356 239.5,308.5 Z"/></g>
<g><path style="opacity:1" fill="#f1f3f7" d="M 272.5,320.5 C 265.159,328.005 257.326,335.005 249,341.5C 243.664,336.996 238.497,332.329 233.5,327.5C 233.5,325.5 233.5,323.5 233.5,321.5C 232.448,321.649 231.448,321.483 230.5,321C 230.932,313.376 235.265,309.876 243.5,310.5C 245.366,311.014 247.2,311.68 249,312.5C 251.92,311.289 254.753,309.956 257.5,308.5C 260.286,306.887 262.953,305.054 265.5,303C 269.931,302.049 274.431,301.216 279,300.5C 281.032,300.858 282.866,301.692 284.5,303C 283.833,303.333 283.167,303.667 282.5,304C 283.38,305.356 283.714,306.856 283.5,308.5C 282.325,308.281 281.325,308.614 280.5,309.5C 278.047,313.441 275.381,317.107 272.5,320.5 Z"/></g>
<g><path style="opacity:0.573" fill="#797b7f" d="M 241.5,339.5 C 238.397,337.577 235.397,335.41 232.5,333C 226.271,326.603 219.938,320.436 213.5,314.5C 214.117,314.389 214.617,314.056 215,313.5C 224.798,321.629 234.298,330.129 243.5,339C 242.906,339.464 242.239,339.631 241.5,339.5 Z"/></g>
<g><path style="opacity:0.318" fill="#404646" d="M 302.5,293.5 C 302.167,294.833 301.833,296.167 301.5,297.5C 286.619,314.214 270.286,329.38 252.5,343C 247.771,345.307 244.104,344.14 241.5,339.5C 242.239,339.631 242.906,339.464 243.5,339C 234.298,330.129 224.798,321.629 215,313.5C 214.617,314.056 214.117,314.389 213.5,314.5C 209.833,311.5 206.5,308.167 203.5,304.5C 205.167,305.167 206.833,305.833 208.5,306.5C 210.167,307.167 211.833,307.833 213.5,308.5C 216.112,311.779 219.112,314.779 222.5,317.5C 226.167,320.833 229.833,324.167 233.5,327.5C 238.497,332.329 243.664,336.996 249,341.5C 257.326,335.005 265.159,328.005 272.5,320.5C 280.095,315.242 287.095,309.242 293.5,302.5C 296.86,299.806 299.86,296.806 302.5,293.5 Z"/></g>
<g><path style="opacity:1" fill="#bac2d1" d="M 239.5,308.5 C 241.153,308.66 242.486,309.326 243.5,310.5C 235.265,309.876 230.932,313.376 230.5,321C 231.448,321.483 232.448,321.649 233.5,321.5C 233.5,323.5 233.5,325.5 233.5,327.5C 229.833,324.167 226.167,320.833 222.5,317.5C 221.109,315.208 220.109,312.708 219.5,310C 219.585,308.893 219.919,307.893 220.5,307C 226.915,306.441 233.248,306.941 239.5,308.5 Z"/></g>
</svg>
